<svg xmlns:ev="http://www.w3.org/2001/xml-events" xmlns="http://www.w3.org/2000/svg" width="490" height="468" xmlns:xlink="http://www.w3.org/1999/xlink" viewBox="0 0 490 468"><style type="text/css"><![CDATA[
.st1 {fill:#303030;font-family:宋体;font-size:10pt}
]]></style><defs><linearGradient y1="0%" x2="0%" x1="0%" y2="100%" id="lg1"><stop stop-color="#fbfcfa" offset="0"/><stop stop-color="#eff3ea" offset="1"/></linearGradient></defs><g transform="translate(5,5)" id="page1"><rect stroke="#808080" width="480" height="458" y="0" x="0" fill="#ffffff"/><g transform="translate(39.85,40.5)"><g id="shape1"><path d="M25.5,58L72.5,58C85.5,58,96,47.5,96,30C96,12.5,85.5,2,72.5,2L25.5,2C12.5,2,2,12.5,2,30C2,47.5,12.5,58,25.5,58z" fill-opacity="0.08" fill="#000000"/><path stroke="#71893f" d="M23.5,56L70.5,56C83.5,56,94,45.5,94,28C94,10.5,83.5,0,70.5,0L23.5,0C10.5,0,0,10.5,0,28C0,45.5,10.5,56,23.5,56z" fill="url(#lg1)"/></g><text class="st1"><tspan y="32.5" x="21">启动软件</tspan></text></g><g transform="translate(86.85,96.5)" id="shape2"><path stroke="#71893f" d="M0,0L0,55.6" fill="none"/><path stroke="#71893f" stroke-width="1" stroke-linecap="round" d="M0,60L3,54.8C2.1,55.3,1.1,55.6,0,55.6C-1.1,55.6,-2.1,55.3,-3,54.8L0,60" fill="#71893f"/></g><g transform="translate(39.85,156.5)"><g id="shape3"><path d="M96,58L96,2L2,2L2,58L96,58z" fill-opacity="0.08" fill="#000000"/><path stroke="#71893f" d="M94,56L94,0L0,0L0,56L94,56z" fill="url(#lg1)"/></g><text class="st1"><tspan y="32.5" x="8">外接程序加载</tspan></text></g><g transform="translate(133.85,184.5)" id="shape4"><path stroke="#71893f" d="M0,0L55.6,0" fill="none"/><path stroke="#71893f" stroke-width="1" stroke-linecap="round" d="M60,0L54.8,-3C55.3,-2.1,55.6,-1.1,55.6,0C55.6,1.1,55.3,2.1,54.8,3L60,0" fill="#71893f"/></g><g transform="translate(193.85,155.5)"><g id="shape5"><path d="M96,60L96,2L2,2L2,60L96,60z" fill-opacity="0.08" fill="#000000"/><path d="M94,58L94,0L0,0L0,58L94,58z" fill="url(#lg1)"/><path stroke="#71893f" d="M94,58L94,0L0,0L0,58L94,58zM14,58L14,0L14,58zM80,58L80,0L80,58z" fill="none"/></g><text class="st1"><tspan y="26" x="21">加载可用</tspan><tspan y="41" x="34">列表</tspan></text></g><g transform="translate(287.85,184.5)" id="shape6"><path stroke="#71893f" d="M0,0L28,0L28,-96.3L55.6,-96.3" fill="none"/><path stroke="#71893f" stroke-width="1" stroke-linecap="round" d="M60,-96.3L54.8,-99.3C55.3,-98.5,55.6,-97.4,55.6,-96.3C55.6,-95.2,55.3,-94.2,54.8,-93.3L60,-96.3" fill="#71893f"/></g><g transform="translate(347.85,69.17)"><path stroke="#71893f" d="M0,33.3L0,0L94,0L94,33.3C79,26.9,62,26.9,47,33.3C32,39.6,15,39.6,0,33.3z" id="shape7" fill="#ffffff"/><text class="st1"><tspan y="16" x="8">样品定时核对</tspan></text></g><g transform="translate(347.85,117.5)"><path stroke="#71893f" d="M0,33.3L0,0L94,0L94,33.3C79,26.9,62,26.9,47,33.3C32,39.6,15,39.6,0,33.3z" id="shape8" fill="#ffffff"/><text class="st1"><tspan y="16" x="8">用户权限管理</tspan></text></g><g transform="translate(347.85,166.17)"><path stroke="#71893f" d="M0,33.3L0,0L94,0L94,33.3C79,26.9,62,26.9,47,33.3C32,39.6,15,39.6,0,33.3z" id="shape9" fill="#ffffff"/><text class="st1"><tspan y="16" x="8">补偿系数加载</tspan><tspan y="31" x="34">导入</tspan></text></g><g transform="translate(347.85,213.67)"><path stroke="#71893f" d="M0,33.3L0,0L94,0L94,33.3C79,26.9,62,26.9,47,33.3C32,39.6,15,39.6,0,33.3z" id="shape10" fill="#ffffff"/><text class="st1"><tspan y="23.5" x="11">CSV输出文件</tspan></text></g><g transform="translate(287.85,184.5)" id="shape11"><path stroke="#71893f" d="M0,0L28,0L55.6,.6" fill="none"/><path stroke="#71893f" stroke-width="1" stroke-linecap="round" d="M60,.7L54.9,-2.4C55.4,-1.5,55.6,-0.5,55.6,.6C55.6,1.7,55.3,2.7,54.7,3.6L60,.7" fill="#71893f"/></g><g transform="translate(287.85,184.5)" id="shape12"><path stroke="#71893f" d="M0,0L28,0L28,48.2L55.6,48.2" fill="none"/><path stroke="#71893f" stroke-width="1" stroke-linecap="round" d="M60,48.2L54.8,45.2C55.3,46,55.6,47.1,55.6,48.2C55.6,49.3,55.3,50.3,54.8,51.2L60,48.2" fill="#71893f"/></g><g transform="translate(287.85,184.5)" id="shape13"><path stroke="#71893f" d="M0,0L28,0L28,-48L55.6,-48" fill="none"/><path stroke="#71893f" stroke-width="1" stroke-linecap="round" d="M60,-48L54.8,-51C55.3,-50.1,55.6,-49.1,55.6,-48C55.6,-46.9,55.3,-45.9,54.8,-45L60,-48" fill="#71893f"/></g><g transform="translate(347.85,261.83)"><path stroke="#71893f" d="M0,33.3L0,0L94,0L94,33.3C79,26.9,62,26.9,47,33.3C32,39.6,15,39.6,0,33.3z" id="shape14" fill="#ffffff"/><text class="st1"><tspan y="23.5" x="26">......</tspan></text></g><g transform="translate(287.85,184.5)" id="shape15"><path stroke="#71893f" d="M0,0L28,0L28,96.3L55.6,96.3" fill="none"/><path stroke="#71893f" stroke-width="1" stroke-linecap="round" d="M60,96.3L54.8,93.3C55.3,94.2,55.6,95.2,55.6,96.3C55.6,97.4,55.3,98.5,54.8,99.3L60,96.3" fill="#71893f"/></g><g transform="translate(86.85,212.5)" id="shape16"><path stroke="#71893f" d="M0,0L0,122.1" fill="none"/><path stroke="#71893f" stroke-width="1" stroke-linecap="round" d="M0,126.5L3,121.3C2.1,121.8,1.1,122.1,0,122.1C-1.1,122.1,-2.1,121.8,-3,121.3L0,126.5" fill="#71893f"/></g><g transform="translate(39.85,339)"><g id="shape17"><path d="M96,58L96,2L2,2L2,58L96,58z" fill-opacity="0.08" fill="#000000"/><path stroke="#71893f" d="M94,56L94,0L0,0L0,56L94,56z" fill="url(#lg1)"/></g><text class="st1"><tspan y="32.5" x="15">软件主界面</tspan></text></g><g transform="translate(193.85,243.83)"><g id="shape18"><path d="M96,58L96,2L2,2L2,58L96,58z" fill-opacity="0.08" fill="#000000"/><path d="M94,56L94,0L0,0L0,56L94,56z" fill="url(#lg1)"/><path stroke="#71893f" d="M94,56L94,0L0,0L0,56L94,56zM14,56L14,0L14,56zM80,56L80,0L80,56z" fill="none"/></g><text class="st1"><tspan y="32.5" x="21">事件分发</tspan></text></g><g transform="translate(240.85,243.83)" id="shape19"><path stroke="#71893f" d="M0,0L0,-25.9" fill="none"/><path stroke="#71893f" stroke-width="1" stroke-linecap="round" d="M0,-30.3L-3,-25.1C-2.1,-25.6,-1.1,-25.9,0,-25.9C1.1,-25.9,2.1,-25.6,3,-25.1L0,-30.3" fill="#71893f"/></g><g transform="translate(190.35,316.5)"><g transform="translate(26.17,66.96)" id="shape20"><path d="M62.9,2L75.8,15.8L2,15.8L34.4,2L62.9,2z" fill-opacity="0.08" fill="#000000"/><path stroke="#71893f" d="M60.9,0L73.8,13.8L0,13.8L32.4,0L60.9,0z" fill="url(#lg1)"/></g><g transform="translate(8.6,32.1)" id="shape21"><path d="M75.3,2L84.7,16.4L11,16.4L2,2L75.3,2z" fill-opacity="0.08" fill="#000000"/><path stroke="#71893f" d="M73.3,0L82.7,14.4L9,14.4L0,0L73.3,0z" fill="url(#lg1)"/></g><g transform="translate(0,-0)" id="shape22"><path d="M88,2L103,15.3L18.1,15.3L2,2L88,2z" fill-opacity="0.08" fill="#000000"/><path stroke="#71893f" d="M86,0L101,13.3L16.1,13.3L0,0L86,0z" fill="url(#lg1)"/></g><g id="shape23"><path d="M2,2L17.6,15.3L17.6,103L2,92L2,2z" fill-opacity="0.08" fill="#000000"/><path stroke="#71893f" d="M0,0L15.6,13.3L15.6,101L0,90L0,0z" fill="url(#lg1)"/></g><path stroke="#454545" transform="translate(15.55,13.28)" d="M0,0L85.4,0L85.4,21.9L62.2,21.9L62.2,31L76.3,31C76.3,31,85.4,32.9,85.4,43.7C85.4,54.5,76.3,56.8,76.3,56.8L62.2,56.8L62.2,65.6L85.4,65.6L85.4,87.4L0,87.4L0,0z" id="shape24" fill="#ffffff"/><text class="st1"><tspan y="40" x="38">软件</tspan><tspan y="55" x="38">操作</tspan><tspan y="70" x="38">事件</tspan></text></g><g transform="translate(133.85,367)" id="shape25"><path stroke="#71893f" d="M0,0L52.1,0" fill="none"/><path stroke="#71893f" stroke-width="1" stroke-linecap="round" d="M56.5,0L51.3,-3C51.8,-2.1,52.1,-1.1,52.1,0C52.1,1.1,51.8,2.1,51.3,3L56.5,0" fill="#71893f"/></g><g transform="translate(240.85,316.5)" id="shape26"><path stroke="#71893f" d="M0,0L0,-12.3" fill="none"/><path stroke="#71893f" stroke-width="1" stroke-linecap="round" d="M0,-16.7L-3,-11.5C-2.1,-12,-1.1,-12.3,0,-12.3C1.1,-12.3,2.1,-12,3,-11.5L0,-16.7" fill="#71893f"/></g></g></svg>